<?xml version="1.0" encoding="UTF-8"?>
<svg id="Layer_1" xmlns="http://www.w3.org/2000/svg" version="1.1" viewBox="0 0 320 96">
  <!-- Generator: Adobe Illustrator 30.3.0, SVG Export Plug-In . SVG Version: 2.1.3 Build 182)  -->
  <defs>
    <style>
      .st0 {
        fill: #112c82;
      }

      .st1 {
        fill: #ec1b2e;
      }
    </style>
  </defs>
  <g>
    <path class="st0" d="M66,64.2c-1.1,1.6-1.1,3.4-.4,5.1l4.5,10.3c-1.1-.6-5.3-4.7-6.8-6l-3,2.2c-.6-.7-5.9-6.4-5.9-6.4l-5.7,6.3-3.1-2.4-2.8,2.7-1.1-8.3,9.6-11.1c-.4,3.3,0,6.6,2.1,9.4,0-1.3-.3-2.6-.1-3.9.6-5.2,3.6-9.8,8.2-12.2,1.6-.9,3.4-1.1,5.1-1.5-1-.5-2.2-.9-2.3-2.1-.1-.8.2-1.7.2-2.8-2.3,2.5-5.5,3.7-8.6,2.7-1.6-.5-2.8-1.6-3.2-3.2-.1-.7.1-1.2.7-1.4l10.1-4.5c3.9-1.8,5.8,1.7,7.5,4.6l2.9,4.9c1.4,2.4,1.1,5-.5,7.2l-7.4,10.5Z"/>
    <path class="st1" d="M36.7,91.1l-4.2-2.4,13.5-13.2,1.5,1.4-3,4.7,5.6-4.9,3.5,6.4-.2-4.7,1.9-1.3-.5-5.3,9.4,10.7,1.3-.7-4-5.1,2.2-1.5c1.5,1.6,7.2,6.6,8.1,7.3l4.8,7.3-20.7,4.7-19-3.6Z"/>
    <path class="st1" d="M67.5,14.3l1.7,9.2-6.4,7.3s2,2.4,2.9,3.6l7.2-7.9,9.2,1.1,9.4-22.6c.7-1.7,1.5-3.3,2.1-5.1l-26.2,14.3ZM72.2,25.8c-.7-.6-1.3-1.2-1.9-1.9l16.7-16.4-14.8,18.3Z"/>
    <path class="st1" d="M49.9,54.8l-15.6,18.1-10.4,12c-1.2-1-2.4-2.1-3.5-3.2l20-23.1c3,.7,5.6-1.1,6.3-3.9l3.2.2Z"/>
    <path class="st0" d="M50.1,52.1c-1.1.6-2.8.7-3.9-.5-2.7-3-5.1-6.1-7.6-9.3-.8-1.1-1-2.3-.5-3.4.5-1,1.4-1.7,2.7-1.9,1.1-.1,2,.2,2.7,1.1l7.4,9.7c1.1,1.5.8,3.3-.8,4.3Z"/>
    <path class="st0" d="M43.4,55.8c-1.1,1-2.9.8-4-.5l-5.5-6.2c-1.2-1.3-1.3-3,0-4.2,1-1,3-1.5,4.1-.2l5.7,7.1c1,1.3,1,2.9-.2,3.9Z"/>
    <path class="st0" d="M54.8,38.5l-2.7,1.3c-1.7.8-1.9,2.5-1.5,4.3l-5.7-7.6c-1.4-1.8-.9-4,.9-5.2,1.5-1,3.4-.7,4.4.8l4.6,6.4Z"/>
    <path class="st0" d="M62.8,34.9l-6.1,2.8-4.3-6c-.6-.9-.7-2.1-.2-3.1.3-.7,1.2-1.5,2.1-1.8,1.4-.5,2.7,0,3.6,1.2l5,6.9Z"/>
    <path class="st0" d="M54.4.9C28.2.9,6.9,22.3,6.9,48.5s4.3,22.4,11.3,30.7l.3-.3,1.9-2.2c-6.4-7.7-10.2-17.5-10.2-28.2C10.1,24,30,4.2,54.4,4.2s12.4,1.4,17.9,3.8l3.5-1.9c-6.4-3.3-13.7-5.1-21.4-5.1Z"/>
    <path class="st1" d="M102,48.5c0,26.2-21.3,47.5-47.5,47.5s-20.2-3.4-28-9.2l2.1-2.5c7.3,5.3,16.2,8.4,25.9,8.4,24.4,0,44.3-19.9,44.3-44.3s-3.8-20.4-10-28l1.4-3.4c7.4,8.4,11.9,19.4,11.9,31.4Z"/>
  </g>
  <g>
    <g>
      <path class="st0" d="M128.2,19.8v31h26.2v8.8h-37.3V19.8h11.1Z"/>
      <path class="st0" d="M210.4,59.5h-11.4l-4.1-7.6h-23.8l-4.1,7.6h-11.4l21.6-39.8h11.8l21.5,39.8ZM182.9,29.9l-7.5,13.8h15l-7.5-13.8Z"/>
      <path class="st0" d="M250,46v-26.3h11.2v39.8h-11.2l-26.6-26.3v26.3h-11.1V19.8h11.1l26.6,26.3ZM223.4,59.5h-11.1V19.8l11.1,39.8Z"/>
      <path class="st0" d="M293.6,36.1c3.8,0,7,.2,9.8.7,2.8.5,5.1,1.5,6.9,3,1.8,1.5,2.8,3.8,2.8,6.8,0,5.5-2.4,9.2-7.3,11.2s-10.3,2.9-16.3,2.9-11.4-1-16.6-3c-5.2-2-7.7-5.8-7.7-11.4h11.6c0,1.9.8,3.3,2.3,4.3,1.5,1,3.2,1.6,5,1.8,1.8.2,3.8.3,5.9.3,3.2,0,6-.5,8.3-1.4,2.3-.9,3.5-2.4,3.5-4.5h0c0-1.6-1.2-2.6-3.5-3-2.3-.4-5.1-.7-8.4-.7h-3.3c-4.3,0-7.9-.2-10.9-.7-3-.4-5.5-1.5-7.5-3.1-2-1.6-3-4.1-3-7.4,0-9,8.1-13.5,24.3-13.5s11.1,1,16.1,3c5,2,7.4,5.8,7.4,11.4h-11.4c0-2-1.2-3.5-3.5-4.6-2.3-1-5.2-1.6-8.5-1.8-3.6,0-6.7.4-9.2,1.3s-3.8,2.2-3.8,4c0,2.9,4.2,4.3,12.5,4.3h4.5Z"/>
    </g>
    <g>
      <path d="M116.5,68.6h1.1v9.2h2.6v1h-3.6v-10.2Z"/>
      <path d="M124.2,73.9h-2.3v3.9h2.6v1h-3.7v-10.2h3.5v1h-2.4v3.2h2.3v1Z"/>
      <path d="M126.7,75.5l-.5,3.2h-1.1l1.7-10.2h1.5l1.7,10.2h-1.1l-.5-3.2h-1.7ZM128.3,74.5c-.4-2.2-.6-4-.7-4.9h0c0,.8-.4,3.1-.7,4.9h1.4Z"/>
      <path d="M130.9,68.6h1.8c2.2,0,2.5,1.4,2.5,3v4c0,1.6-.2,3.2-2.5,3.2h-1.8v-10.2ZM132,77.8h.6c1.2,0,1.5-.7,1.5-2v-4.4c0-1.2-.2-1.9-1.5-1.9h-.6v8.3Z"/>
      <path d="M139.9,73.9h-2.3v3.9h2.6v1h-3.7v-10.2h3.5v1h-2.4v3.2h2.3v1Z"/>
      <path d="M142.1,74v4.7h-1.1v-10.2h1.8c1.5,0,2.3.7,2.3,2.3v.5c0,1.4-.5,1.9-1,2.1.6.2.9.7.9,2.1s0,2.5,0,3.1h-1.1c-.1-.6-.1-2.3-.1-3.1,0-1.3-.2-1.7-1.2-1.7h-.6ZM142.1,73.1h.7c1,0,1.2-.6,1.2-1.6v-.5c0-.9-.3-1.5-1.3-1.5h-.6v3.6Z"/>
      <path d="M147.1,75.9v.6c0,1,.3,1.5,1,1.5s1-.5,1-1.6-.3-1.6-1.3-2.5c-1.1-.8-1.6-1.4-1.6-2.9s.4-2.5,2-2.5c1.5,0,1.9,1,1.9,2.3v.5h-1.1v-.4c0-.8-.2-1.4-.9-1.4s-.9.6-.9,1.4.2,1.3,1.1,2c1.4,1.1,1.9,1.7,1.9,3.3s-.4,2.7-2.1,2.7-2.1-1.1-2.1-2.4v-.6h1.1Z"/>
      <path d="M151.4,68.6h1.1v4.2h2.1v-4.2h1.1v10.2h-1.1v-5h-2.1v5h-1.1v-10.2Z"/>
      <path d="M158.2,68.6v10.2h-1.1v-10.2h1.1Z"/>
      <path d="M159.7,68.6h1.9c1.5,0,2.2.8,2.2,2.4v.6c0,1.5-.5,2.7-2.3,2.7h-.7v4.5h-1.1v-10.2ZM160.8,73.4h.6c1.2,0,1.3-.7,1.3-1.8v-.5c0-.8-.2-1.5-1.2-1.5h-.7v3.8Z"/>
      <path d="M167.9,75.5l-.5,3.2h-1.1l1.7-10.2h1.5l1.7,10.2h-1.1l-.5-3.2h-1.7ZM169.5,74.5c-.4-2.2-.6-4-.7-4.9h0c0,.8-.4,3.1-.7,4.9h1.4Z"/>
      <path d="M172.7,78.8v-3.8c0-.1,0-.2,0-.3l-1.9-6.1h1.2c.5,1.8,1.1,4,1.3,5h0c.2-1,.8-3.2,1.3-5h1.1l-1.9,6.2c0,0,0,.1,0,.3v3.7h-1.1Z"/>
      <path d="M177.4,68.6v10.2h-1.1v-10.2h1.1Z"/>
      <path d="M179.8,69.6h-1.6v-1h4.4v1h-1.6v9.2h-1.1v-9.2Z"/>
      <path d="M184.4,68.6v10.2h-1.1v-10.2h1.1Z"/>
      <path d="M189.2,73.9h-2.3v3.9h2.6v1h-3.7v-10.2h3.5v1h-2.4v3.2h2.3v1Z"/>
      <path d="M190.4,78.8v-10.2h1.3c.5,1.9,2,7.2,2.1,8h0c0-1.4,0-2.8,0-4.4v-3.6h1v10.2h-1.2c-.5-1.9-2-7.5-2.2-8.3h0c0,1.2,0,2.8,0,4.7v3.6h-1Z"/>
      <path d="M198.3,68.6h1.9c1.5,0,2.2.8,2.2,2.4v.6c0,1.5-.5,2.7-2.3,2.7h-.7v4.5h-1.1v-10.2ZM199.4,73.4h.6c1.2,0,1.3-.7,1.3-1.8v-.5c0-.8-.2-1.5-1.2-1.5h-.7v3.8Z"/>
      <path d="M207.8,71.1v5.1c0,1.8-.7,2.7-2.2,2.7s-2.1-1-2.1-2.7v-5.1c0-1.7.8-2.6,2.2-2.6s2.2,1,2.2,2.6ZM204.5,71.1v5.3c0,1.1.4,1.6,1.1,1.6s1.1-.4,1.1-1.6v-5.2c0-1.1-.4-1.6-1.1-1.6s-1.1.5-1.1,1.6Z"/>
      <path d="M210.1,68.6v7.9c0,.8.3,1.4,1.1,1.4s1-.5,1-1.4v-7.9h1.1v7.9c0,1.6-.7,2.4-2.2,2.4s-2.1-.8-2.1-2.4v-7.9h1.1Z"/>
      <path d="M215.8,74v4.7h-1.1v-10.2h1.8c1.5,0,2.3.7,2.3,2.3v.5c0,1.4-.5,1.9-1,2.1.6.2.9.7.9,2.1s0,2.5,0,3.1h-1.1c-.1-.6-.1-2.3-.1-3.1,0-1.3-.2-1.7-1.2-1.7h-.6ZM215.8,73.1h.7c1,0,1.2-.6,1.2-1.6v-.5c0-.9-.3-1.5-1.3-1.5h-.6v3.6Z"/>
      <path d="M223.1,68.6v7.9c0,.8.3,1.4,1.1,1.4s1-.5,1-1.4v-7.9h1.1v7.9c0,1.6-.7,2.4-2.2,2.4s-2.1-.8-2.1-2.4v-7.9h1.1Z"/>
      <path d="M227.7,78.8v-10.2h1.3c.5,1.9,2,7.2,2.1,8h0c0-1.4,0-2.8,0-4.4v-3.6h1v10.2h-1.2c-.5-1.9-2-7.5-2.2-8.3h0c0,1.2,0,2.8,0,4.7v3.6h-1Z"/>
      <path d="M237,73.9h-2.3v3.9h2.6v1h-3.7v-10.2h3.5v1h-2.4v3.2h2.3v1Z"/>
      <path d="M240.2,78.8v-10.2h1.3c.5,1.9,2,7.2,2.1,8h0c0-1.4,0-2.8,0-4.4v-3.6h1v10.2h-1.2c-.5-1.9-2-7.5-2.2-8.3h0c0,1.2,0,2.8,0,4.7v3.6h-1Z"/>
      <path d="M250.3,71.1v5.1c0,1.8-.7,2.7-2.2,2.7s-2.1-1-2.1-2.7v-5.1c0-1.7.8-2.6,2.2-2.6s2.2,1,2.2,2.6ZM247,71.1v5.3c0,1.1.4,1.6,1.1,1.6s1.1-.4,1.1-1.6v-5.2c0-1.1-.4-1.6-1.1-1.6s-1.1.5-1.1,1.6Z"/>
      <path d="M252.6,68.6v7.9c0,.8.3,1.4,1.1,1.4s1-.5,1-1.4v-7.9h1.1v7.9c0,1.6-.7,2.4-2.2,2.4s-2.1-.8-2.1-2.4v-7.9h1.1Z"/>
      <path d="M258.3,78.8l-1.8-10.2h1.2l.7,4.6c.2,1.4.5,3.2.6,4.2h0c0-1,.4-2.8.6-4.2l.7-4.6h1.2l-1.8,10.2h-1.4Z"/>
      <path d="M265.7,73.9h-2.3v3.9h2.6v1h-3.7v-10.2h3.5v1h-2.4v3.2h2.3v1Z"/>
      <path d="M266.8,68.6h1.1v9.2h2.6v1h-3.6v-10.2Z"/>
      <path d="M271.2,68.6h1.1v9.2h2.6v1h-3.6v-10.2Z"/>
      <path d="M278.8,73.9h-2.3v3.9h2.6v1h-3.7v-10.2h3.5v1h-2.4v3.2h2.3v1Z"/>
      <path d="M282.6,75.9v.6c0,1,.3,1.5,1,1.5s1-.5,1-1.6-.3-1.6-1.3-2.5c-1.1-.8-1.6-1.4-1.6-2.9s.4-2.5,2-2.5c1.5,0,1.9,1,1.9,2.3v.5h-1.1v-.4c0-.8-.2-1.4-.9-1.4s-.9.6-.9,1.4.2,1.3,1.1,2c1.4,1.1,1.9,1.7,1.9,3.3s-.4,2.7-2.1,2.7-2.1-1.1-2.1-2.4v-.6h1.1Z"/>
      <path d="M291.1,71.1v5.1c0,1.8-.7,2.7-2.2,2.7s-2.1-1-2.1-2.7v-5.1c0-1.7.8-2.6,2.2-2.6s2.2,1,2.2,2.6ZM287.8,71.1v5.3c0,1.1.4,1.6,1.1,1.6s1.1-.4,1.1-1.6v-5.2c0-1.1-.4-1.6-1.1-1.6s-1.1.5-1.1,1.6Z"/>
      <path d="M296.3,75.9v.3c0,1.3-.2,2.7-2.1,2.7s-2.1-1.2-2.1-2.7v-5.2c0-1.6.7-2.5,2.1-2.5s2,1.2,2,2.5v.4h-1.1v-.5c0-.8-.1-1.5-.9-1.5s-1,.6-1,1.5v5.3c0,1,.2,1.7,1,1.7s.9-.7.9-1.6v-.4h1.1Z"/>
      <path d="M298.5,68.6v10.2h-1.1v-10.2h1.1Z"/>
      <path d="M303.3,73.9h-2.3v3.9h2.6v1h-3.7v-10.2h3.5v1h-2.4v3.2h2.3v1ZM303.9,66.4l-1.8,1.5h-1.1l1.5-1.5h1.4Z"/>
      <path d="M305.7,69.6h-1.6v-1h4.4v1h-1.6v9.2h-1.1v-9.2Z"/>
      <path d="M312.5,73.9h-2.3v3.9h2.6v1h-3.7v-10.2h3.5v1h-2.4v3.2h2.3v1ZM313.1,66.4l-1.8,1.5h-1.1l1.5-1.5h1.4Z"/>
    </g>
  </g>
</svg>